<?xml version="1.0" encoding="utf-8"?>
<!-- Generator: Adobe Illustrator 18.1.1, SVG Export Plug-In . SVG Version: 6.00 Build 0)  -->
<svg version="1.1" id="Layer_1" xmlns="http://www.w3.org/2000/svg" xmlns:xlink="http://www.w3.org/1999/xlink" x="0px" y="0px"
	 viewBox="0 0 1000 800" enable-background="new 0 0 1000 800" xml:space="preserve">
<g>
	<path fill="#5D5D5D" d="M211.4,306.9l-17.1,8.1c-5.7-13.4-18.7-22-35.8-22c-21.5,0-38.2,14.6-38.2,36.2c0,22,16.3,36.2,38.2,36.2
		c17.1,0,30.1-8.1,35.8-21.5l17.1,8.1c-8.9,18.7-27.6,30.5-53.3,30.5c-32.5,0-57.7-22-57.7-52.8c0-30.5,25.6-52.8,57.7-52.8
		C183.7,276.4,202.4,288.2,211.4,306.9"/>
	<path fill="#5D5D5D" d="M279.7,319.9v-8.1H298v66.7h-18.3v-6.9c-6.1,6.1-13.4,11-26,11c-21.1,0-36.6-15-36.6-36.2
		s15.9-36.6,36.6-36.6C266.3,309.4,273.6,314.2,279.7,319.9 M234.6,345.9c0,13,9.3,21.5,22.4,21.5c12.6,0,22.4-8.1,22.4-20.7v-2
		c0-12.6-9.8-20.7-22.4-20.7C243.9,324,234.6,332.5,234.6,345.9"/>
	<path fill="#5D5D5D" d="M390.2,345.9c0,21.1-15.4,36.6-36.6,36.6c-12.2,0-19.5-4.9-25.6-10.6v42.7h-18.3V311.8H328v8.5
		c6.1-6.1,13.4-11,25.6-11C374.8,309.4,390.2,324.4,390.2,345.9 M328,344.7v2c0,12.6,9.3,20.7,22,20.7c13.4,0,22.4-8.5,22.4-21.5
		c0-13-8.9-21.5-22.4-21.5C337.4,324,328,332.1,328,344.7"/>
	<path fill="#5D5D5D" d="M461.4,319.9v-8.1h18.3v66.7h-18.3v-6.9c-6.1,6.1-13.4,11-25.6,11c-21.1,0-36.6-15-36.6-36.2
		s15.4-36.6,36.6-36.6C448,309.4,455.3,314.2,461.4,319.9 M416.7,345.9c0,13,8.9,21.5,22.4,21.5c12.6,0,22.4-8.1,22.4-20.7v-2
		c0-12.6-9.3-20.7-22.4-20.7S416.7,332.5,416.7,345.9"/>
	<path fill="#5D5D5D" d="M563.4,330.9l-14.6,7.3c-3.7-8.9-11-14.2-21.1-14.2c-12.2,0-21.5,8.9-21.5,22c0,12.6,9.3,21.5,21.5,21.5
		c10.2,0,17.9-5.3,21.5-14.2l14.6,7.3c-6.9,13.8-18.7,21.5-36.2,21.5c-22.8,0-39.8-15.4-39.8-36.6s17.1-36.6,39.8-36.6
		C545.1,309.4,557.3,316.7,563.4,330.9"/>
	<path fill="#5D5D5D" d="M594.7,285.4c0,6.1-4.9,10.6-10.6,10.6c-6.1,0-10.6-4.9-10.6-10.6c0-5.7,4.9-10.6,10.6-10.6
		S594.7,279.7,594.7,285.4 M576.4,311.8h18.3v66.7h-18.3V311.8z"/>
	<polygon fill="#5D5D5D" points="669.5,414.6 693.9,371.1 660.2,311.8 680.5,311.8 704.9,355.3 728,311.8 748.4,311.8 689.4,414.6 	
		"/>
	<path fill="#5D5D5D" d="M658.9,378.1c-4.1,2.4-10.2,4.1-16.7,4.1c-16.3,0-27.6-8.5-27.6-25.2v-33.3h-14.2v-12.2H615V287h17.5v24.4
		h22.4v12.2h-22.8v28.9c0,8.9,4.1,14.2,12.2,14.2c4.9,0,9.3-1.2,12.2-3.7L658.9,378.1z"/>
	<rect x="110.2" y="402.4" fill="#5D5D5D" width="18.3" height="102.8"/>
	<path fill="#5D5D5D" d="M219.1,467.5v37.8h-18.3v-36.6c0-13.4-6.5-20.7-17.9-20.7c-11,0-18.3,8.5-18.3,21.1v36.2h-18.3v-72.8h18.3
		v11.4c0-6.5,11.8-11.4,23.2-11.4C207.7,432.5,219.1,445.9,219.1,467.5"/>
	<path fill="#5D5D5D" d="M283.3,501.2c-4.1,2.4-10.2,4.1-16.7,4.1c-16.3,0-27.6-6.5-27.6-23.2v-31.7h-14.2v-18.3H239v-18.3h17.5
		v18.3h22.8v18.3h-22.8v26.8c0,8.9,4.1,13.4,12.2,13.4c4.9,0,9.3-1.6,12.2-4.5L283.3,501.2z"/>
	<path fill="#5D5D5D" d="M306.9,475.2c1.6,12.2,9.8,15.9,21.5,15.9c10.6,0,17.1-3.7,21.5-11l14.6,8.1c-8.1,11.4-19.1,17.5-36.2,17.5
		c-24,0-39.4-15-39.4-36.2c0-21.1,15.4-36.6,39-36.6c22.4,0,36.6,13,36.6,34.6v8.1h-57.7V475.2z M306.9,463h40.2
		c-1.2-12.2-9.3-14.6-19.9-14.6C317.1,448.4,308.9,450.8,306.9,463"/>
	<rect x="376.4" y="396.3" fill="#5D5D5D" width="18.3" height="108.9"/>
	<rect x="413" y="396.3" fill="#5D5D5D" width="18.3" height="108.9"/>
	<path fill="#5D5D5D" d="M464.6,408.5c0,6.1-4.9,10.6-10.6,10.6c-6.1,0-10.6-4.9-10.6-10.6c0-5.7,4.5-10.6,10.6-10.6
		C459.8,398,464.6,402.9,464.6,408.5 M443.1,432.5h18.3v72.8h-18.3V432.5z"/>
	<path fill="#5D5D5D" d="M539.8,432.5v11c-6.1-6.1-14.6-11-26.8-11c-21.1,0-37.4,15.4-37.4,36.6c0,21.1,16.7,36.6,37.4,36.6
		c12.2,0,20.3-4.9,26.4-10.6v8.9c0,14.2-13,21.1-24.8,21.1c-11,0-19.9-3.7-26.4-11.8l-10.6,12.2c8.1,8.5,21.1,14.2,37.4,14.2
		c23.2,0,42.3-12.2,42.3-35.8v-71.5H539.8z M539.8,470.3c0,12.6-10.6,20.7-23.6,20.7c-13,0-22.8-8.5-22.8-21.5
		c0-13,10.2-21.5,23.2-21.5c12.6,0,23.2,8.1,23.2,20.7V470.3z"/>
	<path fill="#5D5D5D" d="M582.9,475.2c1.6,12.2,9.8,15.9,21.5,15.9c10.6,0,17.1-3.7,21.5-11l14.6,8.1c-8.1,11.4-19.1,17.5-36.2,17.5
		c-24,0-39.4-15-39.4-36.2c0-21.1,17.1-36.6,40.2-36.6c22.4,0,37.8,13,37.8,34.6v8.1h-60.2V475.2z M582.9,463h40.2
		c-1.2-12.2-9.3-14.6-19.9-14.6C592.7,448.4,585,450.8,582.9,463"/>
	<path fill="#5D5D5D" d="M727.6,467.5v37.8h-18.3v-36.6c0-13.4-6.5-20.7-17.9-20.7c-11,0-18.3,8.5-18.3,21.1v36.2h-18.3v-72.8h18.3
		v11.4c0-6.5,11.8-11.4,23.2-11.4C715.9,432.5,727.6,445.9,727.6,467.5"/>
	<path fill="#5D5D5D" d="M812.2,454.1l-14.6,7.3c-3.7-8.9-11-14.2-21.1-14.2c-12.2,0-21.5,8.9-21.5,22c0,12.6,9.3,21.5,21.5,21.5
		c10.2,0,17.9-5.3,21.5-14.2l14.6,7.3c-6.9,13.8-18.7,21.5-36.2,21.5c-22.8,0-39.8-15.4-39.8-36.6c0-21.1,17.1-36.6,39.8-36.6
		C793.5,432.9,805.7,440.3,812.2,454.1"/>
	<path fill="#5D5D5D" d="M838.2,475.2c1.6,12.2,9.8,15.9,21.5,15.9c10.6,0,17.1-3.7,21.5-11l14.6,8.1c-8.1,11.4-19.1,17.5-36.2,17.5
		c-24,0-39.4-15-39.4-36.2c0-21.1,16.3-36.6,39.4-36.6c22.4,0,37.4,13,37.4,34.6v8.1h-58.9V475.2z M838.2,463h40.2
		c-1.2-12.2-9.3-14.6-19.9-14.6S840.2,450.8,838.2,463"/>
</g>
<g>
	<path fill="#37B9C6" d="M105.9,581.1c0,2.1,0.3,4.2,0.9,6.1s1.5,3.3,2.7,4.5c1.2,1.2,2.7,2.4,4.2,3c1.8,0.6,3.6,1.2,6.1,1.2
		c1.2,0,2.7,0,3.9-0.3c1.2-0.3,2.4-0.6,3.6-1.2v-8.5h-8.5v-4.8h14.5v16.3c-2.1,1.2-4.2,2.1-6.7,2.7c-2.4,0.6-4.8,0.9-7.6,0.9
		c-3,0-5.7-0.6-8.2-1.5c-2.4-0.9-4.5-2.4-6.1-3.9c-1.5-1.5-3-3.6-3.6-6.1s-1.2-4.8-1.2-7.6c0-3,0.6-6.1,1.5-8.5
		c0.9-2.4,2.4-4.5,4.2-6.4c1.8-1.8,3.9-3,6.4-3.9c2.4-0.9,5.1-1.5,8.2-1.5c2.4,0,4.5,0.3,7,0.9c2.1,0.6,4.2,1.5,6.1,2.7v6.1
		c-0.9-0.6-1.8-1.2-3-1.8c-0.9-0.6-2.1-0.9-3.3-1.5c-1.2-0.3-2.1-0.6-3.3-0.9s-2.1-0.3-3.3-0.3c-2.1,0-4.2,0.3-6.1,1.2
		c-1.8,0.6-3.3,1.8-4.5,3c-1.2,1.2-2.1,3-2.7,4.8C106.5,577.7,105.9,578.9,105.9,581.1z"/>
	<path fill="#37B9C6" d="M152.5,575c0.6,0,1.2,0,1.8,0.3c0.6,0,1.2,0.3,1.8,0.6v4.5c-0.6-0.3-1.5-0.3-2.1-0.3s-1.5,0-2.1,0
		s-1.5,0.3-1.8,0.6c-0.6,0.3-0.9,0.9-1.2,1.2c-0.3,0.6-0.6,1.2-0.6,1.8s-0.3,1.5-0.3,2.4v13.9h-5.7v-16.3c0-0.6,0-1.5,0-2.4
		s0-1.5-0.3-2.4c0-0.6-0.3-1.5-0.3-2.1s-0.3-1.2-0.3-1.5h4.8c0,0.3,0.3,0.3,0.3,0.6c0,0.3,0.3,0.6,0.3,0.9s0.3,0.9,0.3,1.2
		c0,0.3,0,0.9,0.3,1.2c0.3-0.6,0.6-0.9,0.9-1.5c0.3-0.6,0.6-0.9,1.2-1.5c0.3-0.6,0.9-0.9,1.5-1.2C151.6,574.7,151.9,575,152.5,575z"
		/>
	<path fill="#37B9C6" d="M186.4,587.7c0,1.8-0.3,3.6-0.9,5.1c-0.6,1.5-1.5,3-2.7,3.9c-1.2,1.2-2.4,2.1-4.2,2.7
		c-1.8,0.6-3.3,0.9-5.4,0.9c-1.8,0-3.6-0.3-5.1-0.9c-1.5-0.6-3-1.5-3.9-2.4c-1.2-1.2-2.1-2.4-2.7-3.9c-0.6-1.5-0.9-3.3-0.9-5.1
		c0-2.1,0.3-3.9,0.9-5.4s1.5-3,2.7-4.2c1.2-1.2,2.4-2.1,4.2-2.4c1.5-0.6,3.6-0.9,5.7-0.9c2.1,0,3.6,0.3,5.4,0.9
		c1.5,0.6,2.7,1.5,3.9,2.4s1.8,2.4,2.4,3.9S186.4,585.9,186.4,587.7z M180.7,587.7c0-2.7-0.6-4.8-1.8-6.1c-1.2-1.5-3-2.1-5.1-2.1
		c-2.4,0-4.2,0.6-5.4,2.1s-1.8,3.3-1.8,6.1c0,1.2,0.3,2.4,0.6,3.3c0.3,0.9,0.9,1.8,1.5,2.7s1.5,1.2,2.4,1.5c0.9,0.3,1.8,0.6,3,0.6
		c2.4,0,3.9-0.6,5.1-2.1C180.1,592.6,180.7,590.4,180.7,587.7z"/>
	<path fill="#37B9C6" d="M228.8,575.6l-9.4,24.5h-5.1l-3.9-13c-0.3-0.9-0.6-1.5-0.6-2.4c-0.3-0.6-0.3-1.2-0.3-1.5h-0.3
		c0,0.3-0.3,0.9-0.3,1.5c-0.3,0.6-0.3,1.5-0.6,2.4l-4.2,12.7h-5.1l-8.8-24.5h5.7l4.2,13c0,0.3,0.3,0.6,0.3,1.2
		c0,0.3,0.3,0.9,0.3,1.5s0.3,0.9,0.3,1.5s0.3,0.9,0.3,1.2l0,0c0-0.3,0-0.9,0.3-1.2c0-0.6,0.3-0.9,0.3-1.5s0.3-0.9,0.3-1.2
		c0-0.3,0.3-0.9,0.3-0.9l4.2-13h4.2l4.2,13c0,0.3,0.3,0.6,0.3,1.2c0,0.3,0.3,0.9,0.3,1.5s0.3,0.9,0.3,1.5s0.3,0.9,0.3,1.2l0,0
		c0-0.3,0.3-0.9,0.3-1.2c0-0.6,0.3-0.9,0.3-1.5s0.3-0.9,0.3-1.5s0.3-0.9,0.3-0.9l4.2-13h7V575.6z"/>
	<path fill="#37B9C6" d="M267.5,575.6l-8.8,21.8c-0.3,0.9-0.6,1.8-1.2,3.3c-0.3,1.2-0.9,2.7-1.2,4.2s-0.9,3-1.2,4.5s-0.9,3-1.2,4.5
		h-5.7c0.3-1.5,0.6-2.7,0.9-3.9s0.6-2.4,1.2-3.6c0.3-1.2,0.9-2.4,1.2-3.3c0.3-1.2,0.9-2.4,1.5-3.9c-1.8-3.9-3.3-7.9-5.1-11.8
		s-3.3-7.9-5.1-11.8h6.4l6.1,15.7c0,0.3,0.3,0.6,0.3,0.9c0,0.3,0,0.6,0.3,0.9c0-0.3,0-0.3,0.3-0.6c0-0.3,0.3-0.6,0.3-0.6l5.7-15.7
		h5.4V575.6z"/>
	<path fill="#37B9C6" d="M296.6,587.7c0,1.8-0.3,3.6-0.9,5.1c-0.6,1.5-1.5,3-2.7,3.9c-1.2,1.2-2.4,2.1-4.2,2.7
		c-1.8,0.6-3.3,0.9-5.4,0.9c-1.8,0-3.6-0.3-5.1-0.9c-1.5-0.6-3-1.5-3.9-2.4c-1.2-1.2-2.1-2.4-2.7-3.9c-0.6-1.5-0.9-3.3-0.9-5.1
		c0-2.1,0.3-3.9,0.9-5.4c0.6-1.5,1.5-3,2.7-4.2c1.2-1.2,2.4-2.1,4.2-2.4c1.5-0.6,3.6-0.9,5.7-0.9c2.1,0,3.6,0.3,5.4,0.9
		c1.5,0.6,2.7,1.5,3.9,2.4c1.2,0.9,1.8,2.4,2.4,3.9S296.6,585.9,296.6,587.7z M290.8,587.7c0-2.7-0.6-4.8-1.8-6.1
		c-1.2-1.5-3-2.1-5.1-2.1c-2.4,0-4.2,0.6-5.4,2.1s-1.8,3.3-1.8,6.1c0,1.2,0.3,2.4,0.6,3.3c0.3,0.9,0.9,1.8,1.5,2.7s1.5,1.2,2.4,1.5
		c0.9,0.3,1.8,0.6,3,0.6c2.4,0,3.9-0.6,5.1-2.1C290.2,592.6,290.8,590.4,290.8,587.7z"/>
	<path fill="#37B9C6" d="M303.2,575.6h5.7v15.1c0,1.8,0.3,3,0.9,3.9c0.6,0.9,1.8,1.5,3.3,1.5c0.6,0,1.2,0,1.8-0.3
		c0.6-0.3,1.2-0.3,1.8-0.6c0.6-0.3,0.9-0.6,1.5-0.9c0.6-0.3,0.9-0.6,1.2-0.9v-17.6h5.7v24.5h-5.4l-0.3-2.4c-0.3,0.3-0.9,0.6-1.5,1.2
		c-0.6,0.3-1.2,0.6-1.8,0.9c-0.6,0.3-1.2,0.6-2.1,0.6c-0.6,0.3-1.5,0.3-2.4,0.3c-3,0-5.1-0.9-6.7-2.4c-1.5-1.5-2.1-3.9-2.1-7v-16
		H303.2z"/>
	<path fill="#37B9C6" d="M344.7,575c0.6,0,1.2,0,1.8,0.3c0.6,0,1.2,0.3,1.8,0.6v4.5c-0.6-0.3-1.5-0.3-2.1-0.3s-1.5,0-2.1,0
		s-1.5,0.3-1.8,0.6c-0.6,0.3-0.9,0.9-1.2,1.2c-0.3,0.6-0.6,1.2-0.6,1.8s-0.3,1.5-0.3,2.4v13.9h-5.7v-16.3c0-0.6,0-1.5,0-2.4
		s0-1.5-0.3-2.4c0-0.6-0.3-1.5-0.3-2.1s-0.3-1.2-0.3-1.5h4.8c0,0.3,0.3,0.3,0.3,0.6c0,0.3,0.3,0.6,0.3,0.9s0.3,0.9,0.3,1.2
		c0,0.3,0,0.9,0.3,1.2c0.3-0.6,0.6-0.9,0.9-1.5c0.3-0.6,0.6-0.9,1.2-1.5c0.3-0.6,0.9-0.9,1.5-1.2C343.8,574.7,344.1,575,344.7,575z"
		/>
	<path fill="#37B9C6" d="M389.2,600.1h-5.7V585c0-1.8-0.3-3-0.9-3.9s-1.8-1.5-3.3-1.5c-0.6,0-1.2,0-1.8,0.3
		c-0.6,0.3-1.2,0.3-1.8,0.6c-0.6,0.3-0.9,0.6-1.5,0.9c-0.6,0.3-0.9,0.6-1.2,0.9v17.6h-5.7v-24.5h5.4l0.3,2.4
		c0.3-0.3,0.9-0.9,1.5-1.2c0.6-0.3,1.2-0.6,1.8-0.9c0.6-0.3,1.2-0.6,2.1-0.6s1.5-0.3,2.4-0.3c3,0,5.1,0.9,6.7,2.4
		c1.5,1.5,2.1,3.9,2.1,7v16H389.2z"/>
	<path fill="#37B9C6" d="M396.1,587.7c0-1.8,0.3-3.6,0.9-5.1c0.6-1.5,1.5-3,2.7-3.9s2.4-1.8,3.9-2.4c1.5-0.6,3.3-0.9,5.1-0.9
		c1.8,0,3.6,0.3,4.8,0.9c1.2,0.6,2.7,1.2,3.6,2.4c0.9,1.2,1.8,2.1,2.1,3.6c0.6,1.5,0.6,3,0.6,4.8v2.4h-18.8c0,0.9,0.3,1.8,0.9,2.7
		c0.3,0.9,0.9,1.5,1.8,2.1s1.5,1.2,2.4,1.5c0.9,0.3,2.1,0.6,3.3,0.6c0.6,0,1.5,0,2.1-0.3c0.9,0,1.5-0.3,2.4-0.6
		c0.9-0.3,1.5-0.6,2.4-0.9c0.9-0.3,1.5-0.9,2.4-1.2v4.5c-1.5,0.9-3,1.5-4.8,2.1s-3.6,0.6-5.7,0.6c-2.1,0-3.6-0.3-5.4-0.9
		c-1.5-0.6-3-1.5-3.9-2.4c-1.2-1.2-1.8-2.4-2.4-3.9C396.1,591.7,396.1,589.8,396.1,587.7z M408.8,579.6c-1.8,0-3.3,0.6-4.5,1.5
		s-2.1,2.4-2.4,4.2h13c0-1.8-0.6-3.3-1.8-4.2S410.4,579.6,408.8,579.6z"/>
	<path fill="#37B9C6" d="M440.9,599.5c-0.6,0.3-1.5,0.6-2.4,0.9c-0.9,0.3-1.8,0.3-3,0.3c-2.4,0-4.2-0.6-5.1-1.8
		c-0.9-1.2-1.5-3.3-1.5-6.1v-13h-4.5v-3.9h4.8c0.3-0.9,0.6-2.1,0.9-3.3c0.3-1.2,0.6-2.1,0.9-3.3h3.6v6.7h7v3.9h-7v13.9
		c0,0.9,0.3,1.5,0.6,2.1s1.2,0.9,1.8,0.9s1.5,0,2.1,0s1.2,0,1.8-0.3L440.9,599.5L440.9,599.5z"/>
	<path fill="#37B9C6" d="M482.4,575.6l-9.4,24.5h-5.1l-3.9-13c-0.3-0.9-0.6-1.5-0.6-2.4c-0.3-0.6-0.3-1.2-0.3-1.5h-0.3
		c0,0.3-0.3,0.9-0.3,1.5c-0.3,0.6-0.3,1.5-0.6,2.4l-4.2,12.7h-5.1l-8.8-24.5h5.7l4.2,13c0,0.3,0.3,0.6,0.3,1.2
		c0,0.3,0.3,0.9,0.3,1.5s0.3,0.9,0.3,1.5s0.3,0.9,0.3,1.2l0,0c0-0.3,0-0.9,0.3-1.2c0-0.6,0.3-0.9,0.3-1.5s0.3-0.9,0.3-1.2
		c0-0.3,0.3-0.9,0.3-0.9l4.2-13h4.2l4.2,13c0,0.3,0.3,0.6,0.3,1.2c0,0.3,0.3,0.9,0.3,1.5s0.3,0.9,0.3,1.5s0.3,0.9,0.3,1.2l0,0
		c0-0.3,0.3-0.9,0.3-1.2c0-0.6,0.3-0.9,0.3-1.5s0.3-0.9,0.3-1.5s0.3-0.9,0.3-0.9l4.2-13h7V575.6z"/>
	<path fill="#37B9C6" d="M511.7,587.7c0,1.8-0.3,3.6-0.9,5.1c-0.6,1.5-1.5,3-2.7,3.9c-1.2,1.2-2.4,2.1-4.2,2.7
		c-1.8,0.6-3.3,0.9-5.4,0.9c-1.8,0-3.6-0.3-5.1-0.9c-1.5-0.6-3-1.5-3.9-2.4c-1.2-1.2-2.1-2.4-2.7-3.9c-0.6-1.5-0.9-3.3-0.9-5.1
		c0-2.1,0.3-3.9,0.9-5.4s1.5-3,2.7-4.2c1.2-1.2,2.4-2.1,4.2-2.4c1.5-0.6,3.6-0.9,5.7-0.9c2.1,0,3.6,0.3,5.4,0.9
		c1.5,0.6,2.7,1.5,3.9,2.4s1.8,2.4,2.4,3.9S511.7,585.9,511.7,587.7z M506,587.7c0-2.7-0.6-4.8-1.8-6.1c-1.2-1.5-3-2.1-5.1-2.1
		c-2.4,0-4.2,0.6-5.4,2.1s-1.8,3.3-1.8,6.1c0,1.2,0.3,2.4,0.6,3.3c0.3,0.9,0.9,1.8,1.5,2.7s1.5,1.2,2.4,1.5c0.9,0.3,1.8,0.6,3,0.6
		c2.4,0,3.9-0.6,5.1-2.1C505.4,592.6,506,590.4,506,587.7z"/>
	<path fill="#37B9C6" d="M529.3,575c0.6,0,1.2,0,1.8,0.3c0.6,0,1.2,0.3,1.8,0.6v4.5c-0.6-0.3-1.5-0.3-2.1-0.3s-1.5,0-2.1,0
		s-1.5,0.3-1.8,0.6c-0.6,0.3-0.9,0.9-1.2,1.2c-0.3,0.6-0.6,1.2-0.6,1.8s-0.3,1.5-0.3,2.4v13.9H519v-16.3c0-0.6,0-1.5,0-2.4
		s0-1.5-0.3-2.4c0-0.6-0.3-1.5-0.3-2.1s-0.3-1.2-0.3-1.5h4.8c0,0.3,0.3,0.3,0.3,0.6c0,0.3,0.3,0.6,0.3,0.9s0.3,0.9,0.3,1.2
		c0,0.3,0,0.9,0.3,1.2c0.3-0.6,0.6-0.9,0.9-1.5s0.6-0.9,1.2-1.5c0.3-0.6,0.9-0.9,1.5-1.2C528.4,574.7,528.7,575,529.3,575z"/>
	<path fill="#37B9C6" d="M563.5,600.1h-7.3l-11.5-11.5c0,0.3,0,0.3,0,0.9c0,0.3,0,0.6,0,0.9v10H539v-38.7h5.7v19.4c0,0,0,0.3,0,0.6
		c0,0.3,0,0.6,0,0.9c0,0.3,0,0.9,0,1.2c0,0.3,0,0.9,0,1.2l10.3-9.1h7l-12.1,10.9L563.5,600.1z"/>
	<path fill="#37B9C6" d="M609.8,582.3c-0.3,0.9-0.6,1.8-0.9,2.7s-0.6,1.8-1.2,2.7c-0.3,0.9-0.9,1.8-1.2,2.4
		c-0.6,0.9-0.9,1.5-1.5,2.4c0.9,1.2,2.1,2.1,2.7,2.7c0.9,0.6,1.8,0.9,3,0.9c0.6,0,1.2,0,1.5,0s1.2-0.3,2.1-0.6v4.2
		c-0.6,0.3-1.5,0.6-2.1,0.6c-0.9,0-1.5,0.3-2.4,0.3c-0.9,0-1.8,0-2.7-0.3c-0.9-0.3-1.5-0.6-2.1-0.9c-0.6-0.3-1.2-0.9-1.8-1.5
		c-0.6-0.6-1.2-1.2-1.8-1.8c-0.6,0.6-1.5,1.2-2.4,1.8s-1.8,0.9-2.7,1.5c-0.9,0.3-1.8,0.6-3,0.9c-1.2,0.3-2.4,0.3-3.6,0.3
		c-1.8,0-3.3-0.3-4.8-0.9c-1.5-0.6-2.7-1.2-3.6-2.1c-0.9-0.9-1.8-2.1-2.1-3.3c-0.6-1.2-0.9-2.7-0.9-4.2s0.3-3,0.6-4.2
		c0.6-1.2,1.2-2.4,1.8-3.3c0.6-0.9,1.8-1.8,3-2.7s2.4-1.5,3.9-2.1c-0.6-1.2-1.2-2.1-1.8-3.3c-0.3-1.2-0.6-2.4-0.6-3.9
		s0.3-2.7,0.9-3.9c0.6-1.2,1.2-2.1,2.1-3c0.9-0.9,1.8-1.5,3-1.8c1.2-0.3,2.4-0.6,3.9-0.6s3,0.3,4.2,0.6c1.2,0.3,2.4,0.9,3.3,1.5v4.8
		c-0.6-0.3-0.9-0.6-1.8-0.9c-0.6-0.3-1.2-0.6-1.8-0.9s-1.2-0.3-1.8-0.6c-0.6,0-1.2-0.3-1.8-0.3c-0.9,0-1.8,0.3-2.4,0.6
		c-0.6,0.3-1.2,0.9-1.5,1.2c-0.3,0.6-0.6,0.9-0.6,1.5s-0.3,0.9-0.3,1.5c0,0.9,0.3,2.1,0.6,3.3c0.3,1.2,1.2,2.4,2.1,3.9
		c0.6,0.6,0.9,1.5,1.5,2.4s1.2,1.8,1.8,2.7c0.6,0.9,1.5,2.1,2.1,3s1.5,2.1,2.1,3c0.6-0.9,1.2-1.8,1.5-3c0.6-0.9,0.9-2.1,1.2-3.3
		h-3.9V578h13v4.2L609.8,582.3L609.8,582.3z M590.1,595.9c1.5,0,3-0.3,4.5-0.9c1.5-0.6,2.7-1.5,3.9-2.4c-1.5-1.8-2.7-3.6-4.2-5.7
		s-2.7-3.9-4.2-5.7c-1.2,0.6-2.1,1.2-2.7,1.8s-1.2,1.2-1.8,2.1c-0.6,0.9-0.9,1.5-0.9,2.1c-0.3,0.9-0.3,1.5-0.3,2.4s0,1.8,0.3,2.7
		s0.6,1.5,1.2,2.1s1.2,0.9,1.8,1.2C588.6,595.9,589.2,595.9,590.1,595.9z"/>
	<path fill="#37B9C6" d="M658.8,600.1h-7.3L640,588.6c0,0.3,0,0.3,0,0.9c0,0.3,0,0.6,0,0.9v10h-5.7v-38.7h5.7v19.4c0,0,0,0.3,0,0.6
		c0,0.3,0,0.6,0,0.9c0,0.3,0,0.9,0,1.2c0,0.3,0,0.9,0,1.2l10.3-9.1h7l-12.1,10.9L658.8,600.1z"/>
	<path fill="#37B9C6" d="M685.1,600.1h-5.7V585c0-1.8-0.3-3-0.9-3.9s-1.8-1.5-3.3-1.5c-0.6,0-1.2,0-1.8,0.3
		c-0.6,0.3-1.2,0.3-1.8,0.6c-0.6,0.3-0.9,0.6-1.5,0.9c-0.6,0.3-0.9,0.6-1.2,0.9v17.6H663v-24.5h5.4l0.3,2.4c0.3-0.3,0.9-0.9,1.5-1.2
		c0.6-0.3,1.2-0.6,1.8-0.9c0.6-0.3,1.2-0.6,2.1-0.6s1.5-0.3,2.4-0.3c3,0,5.1,0.9,6.7,2.4s2.1,3.9,2.1,7v16H685.1z"/>
	<path fill="#37B9C6" d="M717.8,587.7c0,1.8-0.3,3.6-0.9,5.1s-1.5,3-2.7,3.9c-1.2,1.2-2.4,2.1-4.2,2.7c-1.8,0.6-3.3,0.9-5.4,0.9
		c-1.8,0-3.6-0.3-5.1-0.9c-1.5-0.6-3-1.5-3.9-2.4c-1.2-1.2-2.1-2.4-2.7-3.9s-0.9-3.3-0.9-5.1c0-2.1,0.3-3.9,0.9-5.4s1.5-3,2.7-4.2
		c1.2-1.2,2.4-2.1,4.2-2.4c1.5-0.6,3.6-0.9,5.7-0.9s3.6,0.3,5.4,0.9c1.5,0.6,2.7,1.5,3.9,2.4s1.8,2.4,2.4,3.9
		S717.8,585.9,717.8,587.7z M712.1,587.7c0-2.7-0.6-4.8-1.8-6.1c-1.2-1.5-3-2.1-5.1-2.1c-2.4,0-4.2,0.6-5.4,2.1
		c-1.2,1.5-1.8,3.3-1.8,6.1c0,1.2,0.3,2.4,0.6,3.3c0.3,0.9,0.9,1.8,1.5,2.7s1.5,1.2,2.4,1.5c0.9,0.3,1.8,0.6,3,0.6
		c2.4,0,3.9-0.6,5.1-2.1C711.5,592.6,712.1,590.4,712.1,587.7z"/>
	<path fill="#37B9C6" d="M760.2,575.6l-9.4,24.5h-5.1l-3.9-13c-0.3-0.9-0.6-1.5-0.6-2.4c-0.3-0.6-0.3-1.2-0.3-1.5h-0.3
		c0,0.3-0.3,0.9-0.3,1.5c-0.3,0.6-0.3,1.5-0.6,2.4l-4.2,12.7h-5.1l-8.8-24.5h5.7l4.2,13c0,0.3,0.3,0.6,0.3,1.2
		c0,0.3,0.3,0.9,0.3,1.5s0.3,0.9,0.3,1.5s0.3,0.9,0.3,1.2l0,0c0-0.3,0-0.9,0.3-1.2c0-0.6,0.3-0.9,0.3-1.5s0.3-0.9,0.3-1.2
		c0-0.3,0.3-0.9,0.3-0.9l4.2-13h4.2l4.2,13c0,0.3,0.3,0.6,0.3,1.2c0,0.3,0.3,0.9,0.3,1.5s0.3,0.9,0.3,1.5s0.3,0.9,0.3,1.2l0,0
		c0-0.3,0.3-0.9,0.3-1.2c0-0.6,0.3-0.9,0.3-1.5s0.3-0.9,0.3-1.5s0.3-0.9,0.3-0.9l4.2-13h7V575.6z"/>
	<path fill="#37B9C6" d="M771.1,600.1h-5.7v-38.4h5.7V600.1z"/>
	<path fill="#37B9C6" d="M778.6,587.7c0-1.8,0.3-3.6,0.9-5.1s1.5-3,2.7-3.9s2.4-1.8,3.9-2.4c1.5-0.6,3.3-0.9,5.1-0.9
		c1.8,0,3.6,0.3,4.8,0.9c1.2,0.6,2.7,1.2,3.6,2.4c0.9,1.2,1.8,2.1,2.1,3.6c0.6,1.5,0.6,3,0.6,4.8v2.4h-18.8c0,0.9,0.3,1.8,0.9,2.7
		c0.3,0.9,0.9,1.5,1.8,2.1s1.5,1.2,2.4,1.5c0.9,0.3,2.1,0.6,3.3,0.6c0.6,0,1.5,0,2.1-0.3c0.9,0,1.5-0.3,2.4-0.6
		c0.9-0.3,1.5-0.6,2.4-0.9c0.9-0.3,1.5-0.9,2.4-1.2v4.5c-1.5,0.9-3,1.5-4.8,2.1s-3.6,0.6-5.7,0.6s-3.6-0.3-5.4-0.9
		c-1.5-0.6-3-1.5-3.9-2.4c-1.2-1.2-1.8-2.4-2.4-3.9C778.9,591.7,778.6,589.8,778.6,587.7z M791.4,579.6c-1.8,0-3.3,0.6-4.5,1.5
		s-2.1,2.4-2.4,4.2h13c0-1.8-0.6-3.3-1.8-4.2C794.4,580.2,793.2,579.6,791.4,579.6z"/>
	<path fill="#37B9C6" d="M833.4,600.1H828l-0.3-2.1c-0.6,0.3-0.9,0.6-1.5,0.9c-0.6,0.3-1.2,0.6-1.8,0.9c-0.6,0.3-1.5,0.3-2.1,0.6
		c-0.9,0-1.5,0.3-2.4,0.3c-1.5,0-3-0.3-4.5-0.9c-1.2-0.6-2.4-1.2-3.6-2.4c-0.9-1.2-1.8-2.4-2.4-3.9s-0.9-3.3-0.9-5.4
		c0-1.8,0.3-3.6,0.9-5.1s1.5-3,2.4-3.9c1.2-1.2,2.4-2.1,3.9-2.7s3.3-0.9,5.1-0.9c1.2,0,2.4,0,3.3,0.3c1.2,0.3,2.1,0.6,3,1.2v-15.1
		h5.7v38.4H833.4z M814.4,588c0,1.5,0.3,2.7,0.6,3.6c0.3,0.9,0.9,1.8,1.5,2.4c0.6,0.6,1.2,1.2,2.1,1.5c0.9,0.3,1.5,0.6,2.4,0.6
		c0.6,0,1.5,0,2.1-0.3c0.6-0.3,1.2-0.3,1.8-0.6c0.6-0.3,1.2-0.6,1.5-0.9c0.6-0.3,0.9-0.6,1.2-0.9v-12.1c-0.3-0.3-0.6-0.3-0.9-0.6
		c-0.3-0.3-0.9-0.3-1.2-0.6c-0.6-0.3-0.9-0.3-1.5-0.3s-1.2-0.3-1.8-0.3c-0.9,0-1.8,0-2.7,0.3c-0.9,0.3-1.8,0.9-2.4,1.5
		c-0.6,0.6-1.2,1.5-1.8,2.7C814.7,585,814.4,586.5,814.4,588z"/>
	<path fill="#37B9C6" d="M840.7,588.9c0-2.1,0.3-3.9,0.9-5.7c0.6-1.8,1.5-3,2.7-4.2c1.2-1.2,2.7-2.1,4.5-2.7
		c1.8-0.6,3.6-0.9,5.7-0.9c0.9,0,1.8,0,3,0c0.9,0,1.8,0.3,2.7,0.3c0.9,0,1.8,0.3,2.4,0.6c0.6,0.3,1.5,0.3,1.8,0.6v22.1
		c0,2.4-0.3,4.8-0.6,6.7c-0.3,1.8-1.2,3.6-2.1,4.8s-2.4,2.4-4.2,3s-3.9,0.9-6.4,0.9c-1.5,0-3,0-4.2-0.3c-1.2-0.3-2.7-0.6-3.6-0.9
		v-4.8c1.5,0.6,3,0.9,4.2,0.9c1.5,0.3,2.7,0.3,3.9,0.3c1.5,0,2.7-0.3,3.6-0.9c0.9-0.6,1.8-1.2,2.1-2.1c0.6-0.9,0.9-2.1,1.2-3.3
		c0.3-1.2,0.3-2.4,0.3-3.9v-1.8c-1.2,0.9-2.4,1.5-3.6,1.8c-1.2,0.6-2.7,0.9-4.2,0.9c-1.8,0-3.3-0.3-4.5-0.9
		c-1.2-0.6-2.4-1.2-3.3-2.1c-0.9-0.9-1.5-2.1-2.1-3.6C841,592.3,840.7,590.7,840.7,588.9z M846.7,588.6c0,1.2,0,2.4,0.3,3.3
		c0.3,0.9,0.6,1.5,1.2,2.1s1.2,0.9,1.8,1.2c0.6,0.3,1.5,0.3,2.4,0.3s2.1-0.3,3.3-0.6c1.2-0.6,2.4-1.2,3.3-2.1v-13.6
		c-0.6,0-1.2-0.3-1.8-0.3s-1.2,0-2.1,0c-1.5,0-3,0.3-4.2,0.9c-1.2,0.6-2.1,1.2-2.7,2.1c-0.6,0.9-1.2,1.8-1.5,3
		C846.7,586.5,846.7,587.4,846.7,588.6z"/>
	<path fill="#37B9C6" d="M872.5,587.7c0-1.8,0.3-3.6,0.9-5.1s1.5-3,2.7-3.9s2.4-1.8,3.9-2.4c1.5-0.6,3.3-0.9,5.1-0.9
		c1.8,0,3.6,0.3,4.8,0.9c1.2,0.6,2.7,1.2,3.6,2.4c0.9,1.2,1.8,2.1,2.1,3.6c0.6,1.5,0.6,3,0.6,4.8v2.4h-18.8c0,0.9,0.3,1.8,0.9,2.7
		c0.3,0.9,0.9,1.5,1.8,2.1s1.5,1.2,2.4,1.5c0.9,0.3,2.1,0.6,3.3,0.6c0.6,0,1.5,0,2.1-0.3c0.9,0,1.5-0.3,2.4-0.6
		c0.9-0.3,1.5-0.6,2.4-0.9c0.9-0.3,1.5-0.9,2.4-1.2v4.5c-1.5,0.9-3,1.5-4.8,2.1s-3.6,0.6-5.7,0.6c-2.1,0-3.6-0.3-5.4-0.9
		c-1.5-0.6-3-1.5-3.9-2.4c-1.2-1.2-1.8-2.4-2.4-3.9C872.8,591.7,872.5,589.8,872.5,587.7z M885.2,579.6c-1.8,0-3.3,0.6-4.5,1.5
		s-2.1,2.4-2.4,4.2h13c0-1.8-0.6-3.3-1.8-4.2S887,579.6,885.2,579.6z"/>
</g>
</svg>
