<?xml version="1.0" encoding="utf-8"?>
<!-- Generator: Adobe Illustrator 16.0.4, SVG Export Plug-In . SVG Version: 6.00 Build 0)  -->
<!DOCTYPE svg PUBLIC "-//W3C//DTD SVG 1.1//EN" "http://www.w3.org/Graphics/SVG/1.1/DTD/svg11.dtd">
<svg version="1.1" id="Layer_1" xmlns="http://www.w3.org/2000/svg" xmlns:xlink="http://www.w3.org/1999/xlink" x="0px" y="0px"
	 width="300px" height="300px" viewBox="330 130 300 300" enable-background="new 330 130 300 300" xml:space="preserve">
<g>
	<path fill="#FDFEFF" d="M480,429.292c1.881,0,3.762,0,5.643-0.117l-36.089-3.058C459.311,428.234,469.538,429.292,480,429.292z"/>
	<g>
		<path fill="#6DB8E0" d="M480,130.708c-82.405,0-149.292,66.887-149.292,149.292c0,29.388,8.464,56.896,23.158,79.936
			c26.449,41.614,73,69.356,126.134,69.356c53.017,0,99.567-27.625,126.135-69.356c14.693-23.158,23.157-50.548,23.157-79.936
			C629.292,197.595,562.404,130.708,480,130.708z"/>
		<g>
			<path fill="#527F99" d="M406.882,181.726l-1.165,13.519h0.107l-0.01,0.117H559.23v211.242c5.29-3.29,10.345-6.936,15.164-10.932
				l16.693-198.547L406.882,181.726z"/>
			<polygon fill="#FDFEFF" points="405.717,195.245 405.707,195.362 405.814,195.362 405.824,195.245 			"/>
		</g>
		<path fill="#FDFEFF" d="M405.717,195.245h-5.267h-31.538v184.44c5.878,6.583,12.343,12.695,19.396,18.103V323.73h1.327h5.375
			h63.596v90.515h-43.847c10.932,5.29,22.57,9.286,34.795,11.872l36.089,3.058c27.037-0.94,52.194-9.169,73.706-22.688V195.245
			H405.717z"/>
		<path fill="#F2CD56" d="M395.01,323.73h-6.701v74.057c0.118,0.118,0.353,0.236,0.471,0.354L395.01,323.73z"/>
		<path fill="#F2CD56" d="M397.008,404.136v-73.117h7.994v76.174h-3.409c4.232,2.586,8.582,5.055,13.048,7.17h43.847v-90.515H395.01
			l-6.23,74.41C391.483,400.256,394.187,402.255,397.008,404.136z"/>
		<path fill="#39B39B" d="M405.119,330.9h-7.994v73.117c1.529,1.059,3.057,1.999,4.585,2.939h3.409V330.9z"/>
		<rect x="467.187" y="330.665" fill="#E65336" width="46.551" height="1.294"/>
		<rect x="467.187" y="341.245" fill="#BCBFC2" width="71.591" height="1.293"/>
		<rect x="467.187" y="351.707" fill="#BCBFC2" width="71.591" height="1.294"/>
		<rect x="467.187" y="362.169" fill="#BCBFC2" width="71.591" height="1.293"/>
		<rect x="467.187" y="372.749" fill="#BCBFC2" width="71.591" height="1.293"/>
		<rect x="467.187" y="383.212" fill="#BCBFC2" width="71.591" height="1.292"/>
		<rect x="467.187" y="393.791" fill="#BCBFC2" width="71.591" height="1.293"/>
		<rect x="467.187" y="404.254" fill="#BCBFC2" width="71.591" height="1.292"/>
		<path fill="#2E4555" d="M485.643,240.032l-10.697-7.759c6.229-8.699,16.457-14.341,27.978-14.459v13.166
			C495.87,231.098,489.522,234.625,485.643,240.032z"/>
		<path fill="#39B39B" d="M468.362,252.728c0-7.641,2.468-14.694,6.583-20.454l10.697,7.759c-2.587,3.527-4.114,7.994-4.114,12.695
			c0,3.644,0.94,7.053,2.468,9.992l-11.637,6.23C469.773,264.13,468.362,258.605,468.362,252.728z"/>
		<path fill="#E65336" d="M503.394,274.475c11.989,0,21.747-9.757,21.747-21.748s-9.758-21.747-21.747-21.747
			c-0.118,0-0.236,0-0.471,0v-13.283c0.117,0,0.234,0,0.471,0c19.277,0,35.03,15.634,35.03,35.03
			c0,19.279-15.635,35.031-35.03,35.031c-5.173,0-9.993-1.177-14.46-3.175l5.29-12.107
			C497.045,273.77,500.102,274.475,503.394,274.475z"/>
		<path fill="#FFCA0D" d="M494.224,272.477l-5.29,12.107c-7.053-3.173-12.93-8.698-16.574-15.634l11.637-6.23
			C486.23,267.069,489.874,270.478,494.224,272.477z"/>
		<rect x="388.309" y="217.109" fill="#39B39B" width="46.668" height="1.293"/>
		<rect x="388.309" y="227.571" fill="#BCBFC2" width="71.59" height="1.293"/>
		<rect x="388.309" y="238.151" fill="#BCBFC2" width="71.59" height="1.293"/>
		<rect x="388.309" y="248.613" fill="#BCBFC2" width="71.59" height="1.293"/>
		<rect x="388.309" y="259.076" fill="#BCBFC2" width="71.59" height="1.293"/>
		<rect x="388.309" y="269.656" fill="#BCBFC2" width="71.59" height="1.293"/>
		<rect x="388.309" y="280.117" fill="#BCBFC2" width="71.59" height="1.294"/>
		<rect x="388.309" y="290.697" fill="#BCBFC2" width="71.59" height="1.294"/>
		<rect x="388.309" y="303.157" fill="#BCBFC2" width="149.646" height="1.294"/>
		<rect x="388.309" y="314.561" fill="#BCBFC2" width="103.917" height="1.293"/>
		<rect x="441.678" y="393.438" fill="#EDF0F2" width="7.994" height="13.637"/>
		<rect x="426.866" y="361.111" fill="#2DA5D5" width="7.994" height="46.081"/>
		<rect x="411.937" y="373.807" fill="#E65336" width="7.994" height="33.268"/>
		<path fill="#2C424F" d="M530.665,200.652h21.396v-8.581c0-1.176-0.94-2.116-2.117-2.116h-17.045c-1.175,0-2.115,0.94-2.115,2.116
			v8.581H530.665z"/>
		<g>
			<path fill="#E7E8E9" d="M548.651,200.887l0.587-0.47c-0.117-0.118-6.817-10.933-4.113-15.987
				c1.175-2.116,1.409-3.762,0.939-4.819c-0.705-1.411-2.82-1.646-4.702-1.646v0.823c1.646,0,3.526,0.118,4.114,1.293
				c0.471,0.823,0.117,2.234-0.94,3.997C541.48,189.602,548.298,200.417,548.651,200.887z"/>
			<path fill="#E7E8E9" d="M534.074,200.887c0.235-0.47,7.17-11.403,4.114-16.81c-1.058-1.881-1.293-3.174-0.94-3.997
				c0.589-1.058,2.469-1.293,4.114-1.293v-0.823c-1.881,0-3.879,0.235-4.702,1.646c-0.588,1.058-0.234,2.704,0.94,4.819
				c2.821,5.055-3.996,15.87-4.113,15.987L534.074,200.887z"/>
		</g>
		<path fill="#0B2C48" d="M552.765,201.24L552.765,201.24c0,0.588-0.47,1.175-1.175,1.175h-2.704v-0.94h-2.352v0.94h-10.579v-0.94
			h-2.351v0.94H530.9c-0.588,0-1.176-0.47-1.176-1.175l0,0c0-0.588,0.471-1.176,1.176-1.176h20.807
			C552.295,200.064,552.765,200.534,552.765,201.24z"/>
	</g>
</g>
<path fill="#FDFEFF" d="M395.01,323.848"/>
</svg>
